<svg width="1774" height="342" viewBox="0 0 1774 342" fill="none" xmlns="http://www.w3.org/2000/svg">
<rect width="310.333" height="342" rx="155.167" fill="#0094FF" fill-opacity="0.12"/>
<rect width="310.333" height="342" rx="155.167" fill="#FFD600" fill-opacity="0.12"/>
<rect x="209" width="310.333" height="342" rx="155.167" fill="#FF00C7" fill-opacity="0.12"/>
<rect x="209" width="310.333" height="342" rx="155.167" fill="#0094FF" fill-opacity="0.12"/>
<rect x="418" width="310.333" height="342" rx="155.167" fill="#FF00C7" fill-opacity="0.12"/>
<rect x="418" width="310.333" height="342" rx="155.167" fill="#0094FF" fill-opacity="0.12"/>
<rect x="627" width="310.333" height="342" rx="155.167" fill="#FF00C7" fill-opacity="0.12"/>
<rect x="627" width="310.333" height="342" rx="155.167" fill="#FF00C7" fill-opacity="0.12"/>
<rect x="836" width="310.333" height="342" rx="155.167" fill="#0094FF" fill-opacity="0.12"/>
<rect x="836" width="310.333" height="342" rx="155.167" fill="#FF00C7" fill-opacity="0.12"/>
<rect x="1045" width="310.333" height="342" rx="155.167" fill="#FFD600" fill-opacity="0.12"/>
<rect x="1045" width="310.333" height="342" rx="155.167" fill="#FFD600" fill-opacity="0.12"/>
<rect x="1254" width="310.333" height="342" rx="155.167" fill="#FFD600" fill-opacity="0.12"/>
<rect x="1254" width="310.333" height="342" rx="155.167" fill="#FFD600" fill-opacity="0.12"/>
<rect x="1463" width="310.333" height="342" rx="155.167" fill="#0094FF" fill-opacity="0.12"/>
<rect x="1463" width="310.333" height="342" rx="155.167" fill="#FFD600" fill-opacity="0.12"/>
</svg>